# xmcd
# 
# Track frame offsets:
#     150
#     11434
#     24162
#     38360
#     51177
#     76435
#     93057
#     105927
#     122965
#     143102
#     159122
#     172097
#     188997
#     214467
# 
# Disc length: 3173
# 
# Revision: 3
# Processed by: cddbd v1.5.2PL0 Copyright (c) Steve Scherf et al.
# Submitted via: BonkEnc v1.0rc2
# 
DISCID=a70c630e
DTITLE=Juke Joints - Walking down Memphis
DYEAR=1999
DGENRE=Blues
TTITLE0=Walking down Memphis
TTITLE1=Mojo Hand
TTITLE2=You know what's on
TTITLE3=Too close for comfort
TTITLE4=Addicted to the blues
TTITLE5=Bad luck
TTITLE6=What's wrong with you
TTITLE7=Please baby please
TTITLE8=Deal with the devil
TTITLE9=Mississippi groove
TTITLE10=Jenny Lou
TTITLE11=Just a little bit
TTITLE12=Why do you treat me this way
TTITLE13=You promised me love
EXTD=YEAR: 1999
EXTT0=
EXTT1=
EXTT2=
EXTT3=
EXTT4=
EXTT5=
EXTT6=
EXTT7=
EXTT8=
EXTT9=
EXTT10=
EXTT11=
EXTT12=
EXTT13=
PLAYORDER=
